<svg id="svg" version="1.1" xmlns="http://www.w3.org/2000/svg" xmlns:xlink="http://www.w3.org/1999/xlink" width="400" height="115.34232883558221" viewBox="0, 0, 400,115.34232883558221"><g id="svgg"><path id="path0" d="M154.458 6.781 C 153.128 6.817,152.167 6.911,152.167 7.005 C 152.167 7.094,151.735 7.167,151.208 7.167 C 150.371 7.168,147.769 7.390,144.167 7.770 C 143.571 7.833,143.046 7.932,143.000 7.990 C 142.954 8.048,141.829 8.269,140.500 8.481 C 139.171 8.693,138.008 8.921,137.917 8.988 C 137.825 9.055,136.906 9.289,135.875 9.507 C 134.844 9.726,134.000 9.964,134.000 10.036 C 134.000 10.108,133.881 10.167,133.736 10.167 C 133.388 10.167,130.941 10.869,130.833 11.000 C 130.787 11.056,130.150 11.273,129.417 11.483 C 128.683 11.694,128.046 11.919,128.000 11.984 C 127.954 12.050,127.392 12.278,126.750 12.491 C 126.108 12.704,125.546 12.930,125.500 12.993 C 125.454 13.057,124.910 13.286,124.292 13.502 C 123.673 13.718,123.167 13.945,123.167 14.006 C 123.167 14.067,122.717 14.295,122.167 14.514 C 121.617 14.732,121.167 14.960,121.167 15.019 C 121.167 15.079,120.735 15.301,120.208 15.512 C 119.681 15.723,119.212 15.947,119.167 16.009 C 119.121 16.071,118.746 16.292,118.333 16.500 C 117.921 16.708,117.546 16.929,117.500 16.992 C 117.454 17.055,117.060 17.277,116.625 17.485 C 116.190 17.693,115.833 17.919,115.833 17.986 C 115.833 18.054,115.458 18.285,115.000 18.500 C 114.542 18.715,114.167 18.940,114.167 19.000 C 114.167 19.061,113.960 19.215,113.708 19.343 C 113.456 19.470,113.011 19.764,112.718 19.996 C 112.425 20.227,111.797 20.679,111.321 21.000 C 110.846 21.321,110.334 21.697,110.184 21.836 C 110.035 21.974,109.652 22.273,109.333 22.500 C 109.015 22.727,108.624 23.026,108.464 23.164 C 108.305 23.303,107.929 23.616,107.629 23.860 C 105.762 25.376,102.878 27.995,101.446 29.475 C 98.998 32.006,97.007 34.202,95.946 35.541 C 95.503 36.100,94.616 37.127,94.166 37.601 C 93.983 37.794,93.832 38.019,93.831 38.101 C 93.829 38.183,93.530 38.587,93.166 39.000 C 92.801 39.412,92.460 39.881,92.407 40.042 C 92.354 40.202,92.247 40.333,92.169 40.333 C 92.091 40.333,91.856 40.615,91.648 40.958 C 91.439 41.302,91.170 41.643,91.051 41.717 C 90.931 41.790,90.833 41.941,90.833 42.052 C 90.833 42.163,90.647 42.454,90.419 42.700 C 90.191 42.946,89.846 43.451,89.652 43.823 C 89.458 44.195,89.244 44.500,89.176 44.500 C 89.108 44.500,88.879 44.837,88.667 45.250 C 88.455 45.663,88.231 46.000,88.170 46.000 C 88.109 46.000,87.891 46.337,87.685 46.750 C 87.479 47.163,87.249 47.500,87.174 47.500 C 87.099 47.500,86.915 47.759,86.765 48.076 C 86.615 48.392,86.396 48.748,86.279 48.867 C 86.162 48.986,85.894 49.440,85.685 49.875 C 85.475 50.310,85.253 50.667,85.191 50.667 C 85.129 50.667,84.892 51.060,84.664 51.541 C 84.436 52.022,84.119 52.547,83.958 52.708 C 83.798 52.868,83.667 53.112,83.667 53.250 C 83.667 53.387,83.535 53.632,83.375 53.793 C 83.215 53.954,82.936 54.415,82.755 54.817 C 82.575 55.220,82.350 55.632,82.255 55.733 C 82.160 55.834,81.901 56.310,81.679 56.792 C 81.458 57.273,81.223 57.667,81.158 57.667 C 81.094 57.667,80.872 58.117,80.667 58.667 C 80.461 59.217,80.236 59.667,80.167 59.667 C 80.097 59.667,79.872 59.217,79.667 58.667 C 79.461 58.117,79.236 57.667,79.167 57.667 C 79.097 57.667,78.872 57.217,78.667 56.667 C 78.461 56.117,78.236 55.667,78.167 55.667 C 78.097 55.667,77.872 55.217,77.667 54.667 C 77.461 54.117,77.236 53.667,77.167 53.667 C 77.097 53.667,76.872 53.217,76.667 52.667 C 76.461 52.117,76.236 51.667,76.167 51.667 C 76.097 51.667,75.872 51.217,75.667 50.667 C 75.461 50.117,75.236 49.667,75.167 49.667 C 75.097 49.667,74.874 49.220,74.670 48.675 C 74.466 48.129,74.250 47.661,74.190 47.633 C 74.131 47.606,73.670 46.758,73.166 45.750 C 72.662 44.742,72.212 43.879,72.165 43.833 C 72.118 43.788,71.894 43.337,71.667 42.833 C 71.439 42.329,71.206 41.879,71.148 41.833 C 71.089 41.787,70.868 41.337,70.655 40.833 C 70.442 40.329,70.217 39.879,70.155 39.833 C 70.093 39.787,69.868 39.337,69.655 38.833 C 69.442 38.329,69.217 37.879,69.155 37.833 C 69.093 37.787,68.868 37.337,68.655 36.833 C 68.442 36.329,68.217 35.879,68.155 35.833 C 68.093 35.787,67.868 35.337,67.655 34.833 C 67.442 34.329,67.217 33.879,67.155 33.833 C 67.093 33.787,66.867 33.337,66.652 32.833 C 66.438 32.329,66.179 31.831,66.077 31.726 C 65.975 31.621,65.754 31.171,65.586 30.726 C 65.418 30.281,65.225 29.879,65.158 29.833 C 65.023 29.742,64.737 29.195,63.250 26.190 L 62.250 24.168 50.042 24.168 L 37.833 24.167 37.833 66.167 L 37.833 108.167 50.088 108.167 L 62.343 108.167 62.255 97.958 C 62.206 92.344,62.127 83.102,62.078 77.420 C 62.030 71.739,62.052 67.164,62.128 67.253 C 62.204 67.343,62.445 67.867,62.662 68.417 C 62.880 68.967,63.110 69.454,63.175 69.500 C 63.239 69.546,63.466 69.996,63.679 70.500 C 63.892 71.004,64.112 71.454,64.168 71.500 C 64.225 71.546,64.444 72.052,64.656 72.625 C 64.867 73.198,65.097 73.667,65.167 73.667 C 65.236 73.667,65.461 74.117,65.667 74.667 C 65.872 75.217,66.088 75.667,66.147 75.667 C 66.205 75.667,66.428 76.154,66.642 76.750 C 66.855 77.346,67.081 77.833,67.143 77.833 C 67.205 77.833,67.435 78.283,67.653 78.833 C 67.871 79.383,68.100 79.833,68.161 79.833 C 68.222 79.833,68.402 80.244,68.560 80.745 C 68.718 81.246,68.941 81.753,69.055 81.870 C 69.169 81.987,69.438 82.496,69.652 83.000 C 69.867 83.504,70.093 83.954,70.156 84.000 C 70.220 84.046,70.444 84.552,70.656 85.125 C 70.867 85.698,71.088 86.167,71.146 86.167 C 71.204 86.167,71.426 86.617,71.639 87.167 C 71.853 87.717,72.084 88.167,72.154 88.167 C 72.224 88.167,72.460 88.692,72.678 89.333 C 72.897 89.975,73.125 90.500,73.185 90.500 C 73.245 90.500,73.469 90.931,73.681 91.458 C 73.894 91.985,74.159 92.509,74.270 92.623 C 74.381 92.736,74.602 93.224,74.760 93.706 C 74.919 94.189,75.104 94.621,75.170 94.667 C 75.237 94.712,75.467 95.162,75.681 95.667 C 75.895 96.171,76.167 96.682,76.285 96.804 C 76.403 96.925,76.500 97.098,76.500 97.189 C 76.500 97.279,76.791 97.967,77.147 98.718 C 77.502 99.469,77.845 100.252,77.908 100.458 C 77.971 100.665,78.087 100.833,78.167 100.833 C 78.246 100.833,78.362 101.002,78.425 101.208 C 78.488 101.415,78.820 102.183,79.162 102.917 C 79.505 103.650,79.838 104.419,79.904 104.625 C 79.969 104.831,80.092 105.000,80.178 105.000 C 80.263 105.000,80.333 105.074,80.333 105.163 C 80.333 105.253,80.633 105.967,81.000 106.750 C 81.367 107.533,81.667 108.252,81.667 108.349 C 81.667 108.445,81.797 108.499,81.956 108.469 C 82.178 108.426,82.335 107.992,82.640 106.582 C 82.857 105.574,83.090 104.712,83.158 104.667 C 83.226 104.621,83.451 103.890,83.659 103.042 C 83.867 102.194,84.104 101.500,84.185 101.500 C 84.267 101.500,84.333 101.400,84.333 101.278 C 84.333 100.963,85.029 98.767,85.161 98.667 C 85.221 98.621,85.453 98.002,85.677 97.293 C 85.900 96.583,86.133 96.001,86.194 96.001 C 86.256 96.000,86.468 95.475,86.667 94.833 C 86.865 94.192,87.088 93.667,87.161 93.667 C 87.234 93.667,87.332 93.498,87.377 93.292 C 87.520 92.647,88.075 91.259,88.274 91.047 C 88.380 90.935,88.596 90.429,88.756 89.922 C 88.915 89.415,89.104 89.000,89.176 89.000 C 89.248 89.000,89.468 88.513,89.667 87.917 C 89.865 87.321,90.087 86.833,90.160 86.833 C 90.233 86.833,90.461 86.383,90.667 85.833 C 90.872 85.283,91.097 84.833,91.167 84.833 C 91.236 84.833,91.466 84.365,91.677 83.792 C 91.889 83.219,92.111 82.712,92.170 82.667 C 92.229 82.621,92.458 82.208,92.680 81.750 C 92.902 81.292,93.130 80.879,93.187 80.833 C 93.245 80.787,93.466 80.337,93.679 79.833 C 93.892 79.329,94.117 78.879,94.179 78.833 C 94.241 78.787,94.467 78.337,94.682 77.833 C 94.896 77.329,95.195 76.783,95.344 76.621 C 95.494 76.458,95.715 76.027,95.835 75.662 C 95.955 75.298,96.098 75.000,96.152 74.999 C 96.206 74.999,96.700 74.117,97.250 73.041 C 97.800 71.964,98.300 71.046,98.360 71.000 C 98.470 70.915,98.924 70.135,99.758 68.595 C 100.002 68.143,100.307 67.669,100.435 67.542 C 100.562 67.414,100.667 67.232,100.667 67.137 C 100.667 67.043,100.892 66.632,101.167 66.224 C 101.442 65.816,101.790 65.243,101.940 64.950 C 102.090 64.657,102.268 64.379,102.334 64.333 C 102.401 64.287,102.625 63.913,102.833 63.500 C 103.040 63.087,103.313 62.690,103.438 62.617 C 103.564 62.543,103.667 62.386,103.667 62.266 C 103.667 62.146,103.835 61.864,104.042 61.638 C 104.248 61.413,104.596 60.903,104.816 60.506 C 105.213 59.789,105.355 59.596,106.085 58.778 C 106.295 58.544,106.499 58.254,106.539 58.134 C 106.578 58.015,106.659 59.117,106.719 60.583 C 106.845 63.719,107.122 66.780,107.322 67.250 C 107.400 67.433,107.623 68.555,107.819 69.742 C 108.014 70.930,108.233 71.942,108.306 71.992 C 108.378 72.042,108.571 72.587,108.735 73.202 C 108.900 73.818,109.157 74.468,109.309 74.648 C 109.460 74.828,109.711 75.206,109.867 75.488 C 110.354 76.366,110.445 76.081,110.553 73.339 C 110.610 71.875,110.726 70.543,110.811 70.380 C 110.895 70.217,111.093 69.221,111.252 68.167 C 111.410 67.112,111.635 66.025,111.752 65.750 C 111.868 65.475,112.059 64.875,112.175 64.417 C 112.291 63.958,112.518 63.283,112.679 62.917 C 113.432 61.204,113.667 60.608,113.667 60.409 C 113.667 60.291,113.723 60.169,113.792 60.139 C 113.860 60.108,114.088 59.746,114.297 59.333 C 114.750 58.441,115.104 57.806,115.626 56.954 C 115.838 56.607,116.158 56.063,116.337 55.744 C 116.705 55.088,118.970 52.204,119.391 51.855 C 119.543 51.729,119.667 51.561,119.667 51.482 C 119.667 51.314,122.403 48.536,122.932 48.167 C 123.129 48.029,124.043 47.317,124.964 46.583 C 126.658 45.234,128.487 44.016,129.034 43.873 C 129.199 43.830,129.333 43.738,129.333 43.669 C 129.333 43.514,132.247 42.068,132.875 41.911 C 133.127 41.849,133.333 41.730,133.333 41.649 C 133.333 41.567,133.487 41.500,133.675 41.500 C 133.985 41.500,134.012 41.587,133.967 42.434 L 133.917 43.369 132.167 44.281 C 131.204 44.783,130.042 45.437,129.583 45.736 C 129.125 46.035,128.619 46.326,128.458 46.384 C 128.298 46.442,128.167 46.567,128.167 46.661 C 128.167 46.756,128.073 46.834,127.958 46.835 C 127.844 46.836,127.161 47.338,126.442 47.950 C 124.975 49.199,124.971 49.066,126.500 49.967 C 126.912 50.210,127.813 50.828,128.500 51.341 C 129.188 51.854,129.881 52.322,130.042 52.381 C 130.202 52.441,130.333 52.567,130.333 52.661 C 130.333 52.756,130.407 52.833,130.496 52.833 C 130.586 52.833,131.174 53.208,131.802 53.667 C 132.430 54.125,133.023 54.500,133.121 54.500 C 133.218 54.500,133.341 54.612,133.394 54.750 C 133.446 54.887,133.604 55.000,133.745 55.000 C 133.885 55.000,134.001 55.094,134.002 55.208 C 134.003 55.323,134.322 55.566,134.710 55.747 C 135.099 55.929,135.454 56.129,135.501 56.191 C 135.613 56.341,136.868 57.052,138.000 57.606 C 138.504 57.853,138.954 58.104,139.000 58.165 C 139.046 58.226,139.533 58.456,140.083 58.678 C 140.633 58.899,141.121 59.128,141.167 59.185 C 141.212 59.243,141.813 59.468,142.500 59.684 C 143.188 59.901,143.787 60.126,143.833 60.185 C 143.948 60.331,146.640 61.000,147.115 61.000 C 147.327 61.000,147.500 61.065,147.500 61.145 C 147.500 61.774,157.706 61.826,158.159 61.200 C 158.209 61.131,158.841 60.931,159.563 60.754 C 160.285 60.578,160.960 60.355,161.063 60.258 C 161.166 60.162,161.550 59.983,161.917 59.860 C 162.283 59.737,162.996 59.390,163.500 59.089 C 164.004 58.787,164.585 58.489,164.792 58.426 C 164.998 58.363,165.167 58.246,165.167 58.167 C 165.167 58.088,165.504 57.855,165.917 57.649 C 166.329 57.443,166.667 57.224,166.667 57.163 C 166.667 57.102,167.004 56.879,167.417 56.667 C 167.829 56.455,168.167 56.225,168.167 56.157 C 168.167 56.089,168.455 55.883,168.807 55.700 C 169.159 55.516,169.658 55.171,169.915 54.933 C 170.172 54.695,170.480 54.500,170.599 54.500 C 170.719 54.500,170.877 54.402,170.950 54.283 C 171.023 54.163,171.365 53.894,171.708 53.686 C 172.052 53.477,172.334 53.256,172.336 53.195 C 172.337 53.133,172.712 52.900,173.169 52.676 C 173.626 52.451,174.000 52.226,174.000 52.175 C 174.000 52.124,174.356 51.897,174.792 51.670 C 175.227 51.444,175.622 51.205,175.670 51.140 C 175.776 50.994,177.297 50.333,177.526 50.333 C 177.616 50.333,177.792 50.232,177.917 50.107 C 178.884 49.139,186.333 49.203,186.333 50.178 C 186.333 50.264,186.483 50.333,186.667 50.333 C 187.079 50.333,187.099 49.933,186.706 49.539 C 186.544 49.378,186.242 49.006,186.033 48.713 C 185.473 47.927,184.974 47.337,184.458 46.855 C 184.206 46.619,184.000 46.365,184.000 46.292 C 184.000 45.923,177.718 39.667,177.347 39.667 C 177.258 39.667,177.081 39.517,176.953 39.335 C 176.825 39.152,176.427 38.783,176.069 38.514 C 175.710 38.245,174.967 37.689,174.417 37.279 C 173.867 36.869,173.296 36.425,173.149 36.291 C 173.002 36.158,172.552 35.869,172.149 35.649 C 171.746 35.430,171.391 35.192,171.360 35.121 C 171.328 35.049,170.991 34.832,170.610 34.638 C 170.229 34.444,169.843 34.195,169.751 34.085 C 169.659 33.975,169.321 33.786,169.000 33.665 C 168.679 33.545,168.262 33.308,168.073 33.140 C 167.883 32.971,167.679 32.833,167.617 32.833 C 167.556 32.833,166.866 32.533,166.083 32.167 C 165.301 31.800,164.619 31.500,164.569 31.500 C 164.520 31.500,164.090 31.325,163.614 31.111 C 163.139 30.897,162.262 30.589,161.667 30.427 C 161.071 30.264,160.508 30.070,160.416 29.996 C 160.209 29.829,156.822 29.167,156.172 29.167 C 155.909 29.167,155.663 29.073,155.625 28.958 C 155.572 28.798,154.463 28.750,150.833 28.750 C 147.204 28.750,146.095 28.798,146.042 28.958 C 146.003 29.073,145.795 29.167,145.578 29.167 C 144.994 29.167,141.600 29.842,141.501 29.978 C 141.455 30.042,140.742 30.291,139.917 30.530 C 138.456 30.955,136.504 31.688,136.000 32.001 C 135.712 32.180,134.322 32.833,134.229 32.833 C 134.195 32.833,134.167 31.667,134.167 30.242 L 134.167 27.651 135.322 26.534 C 135.957 25.919,136.876 25.067,137.364 24.641 C 137.851 24.214,138.512 23.635,138.833 23.354 C 140.070 22.271,141.291 21.333,141.467 21.333 C 141.568 21.333,141.710 21.235,141.783 21.116 C 141.857 20.996,142.198 20.728,142.542 20.519 C 142.885 20.310,143.168 20.089,143.169 20.028 C 143.171 19.967,143.546 19.733,144.003 19.509 C 144.459 19.285,144.833 19.049,144.833 18.985 C 144.833 18.921,145.115 18.721,145.458 18.542 C 146.596 17.948,148.082 17.108,148.167 17.012 C 148.311 16.848,151.431 15.333,151.625 15.333 C 151.726 15.333,151.915 15.228,152.043 15.099 C 152.172 14.971,152.646 14.741,153.097 14.589 C 153.548 14.437,154.072 14.212,154.261 14.089 C 154.451 13.966,155.123 13.706,155.755 13.511 C 156.387 13.315,156.944 13.097,156.994 13.025 C 157.043 12.953,157.721 12.717,158.500 12.500 C 159.279 12.283,159.954 12.053,160.000 11.989 C 160.046 11.925,160.796 11.703,161.667 11.496 C 162.537 11.289,163.325 11.063,163.417 10.993 C 163.508 10.924,164.408 10.702,165.417 10.500 C 166.425 10.298,167.325 10.074,167.417 10.003 C 167.599 9.861,170.138 9.416,171.792 9.237 C 172.365 9.175,172.833 9.069,172.833 9.001 C 172.833 8.934,173.640 8.791,174.625 8.684 C 177.771 8.340,178.000 8.299,178.000 8.078 C 178.000 7.943,177.652 7.829,177.042 7.763 C 175.015 7.545,169.758 7.167,168.751 7.167 C 168.170 7.167,167.669 7.100,167.639 7.018 C 167.578 6.855,158.089 6.684,154.458 6.781 M134.000 30.504 C 134.000 33.116,133.992 33.178,133.625 33.334 C 133.419 33.421,132.837 33.754,132.333 34.075 C 131.829 34.395,131.079 34.847,130.667 35.080 C 130.011 35.451,128.327 36.605,126.704 37.795 L 126.189 38.174 126.459 37.628 C 126.607 37.329,127.090 36.585,127.531 35.977 C 127.972 35.368,128.333 34.816,128.333 34.749 C 128.333 34.637,128.765 34.055,130.931 31.250 C 131.355 30.700,131.807 30.190,131.935 30.117 C 132.062 30.043,132.167 29.900,132.167 29.799 C 132.167 29.597,133.672 27.880,133.875 27.851 C 133.944 27.841,134.000 29.035,134.000 30.504 M150.083 39.167 C 150.140 39.258,150.088 39.335,149.968 39.338 C 148.582 39.365,143.628 40.000,143.500 40.167 C 143.454 40.227,142.592 40.439,141.583 40.639 C 140.575 40.839,139.725 41.077,139.694 41.168 C 139.664 41.259,139.526 41.333,139.388 41.333 C 138.933 41.333,136.667 42.049,136.667 42.192 C 136.667 42.270,136.535 42.335,136.375 42.337 C 136.215 42.339,135.652 42.519,135.125 42.735 L 134.167 43.129 134.167 42.318 C 134.167 41.591,134.210 41.495,134.583 41.402 C 134.813 41.344,135.000 41.244,135.000 41.180 C 135.000 41.115,135.694 40.885,136.542 40.669 C 137.390 40.452,138.121 40.222,138.167 40.157 C 138.274 40.003,141.066 39.522,142.631 39.388 C 143.298 39.330,143.884 39.220,143.932 39.142 C 144.058 38.938,149.957 38.961,150.083 39.167 " stroke="none" fill="#4c6c24" fill-rule="evenodd"></path><path id="path1" d="M132.958 28.741 C 132.523 29.221,132.167 29.697,132.167 29.799 C 132.167 29.900,132.062 30.043,131.935 30.117 C 131.807 30.190,131.355 30.700,130.931 31.250 C 128.765 34.055,128.333 34.637,128.333 34.749 C 128.333 34.816,127.972 35.368,127.531 35.977 C 127.090 36.585,126.607 37.329,126.459 37.628 L 126.189 38.174 126.704 37.795 C 128.327 36.605,130.011 35.451,130.667 35.080 C 131.079 34.847,131.829 34.395,132.333 34.075 C 132.837 33.754,133.419 33.421,133.625 33.334 C 134.003 33.174,134.248 27.798,133.875 27.851 C 133.806 27.861,133.394 28.262,132.958 28.741 M133.333 41.649 C 133.333 41.730,133.127 41.849,132.875 41.911 C 132.247 42.068,129.333 43.514,129.333 43.669 C 129.333 43.738,129.199 43.830,129.034 43.873 C 128.487 44.016,126.658 45.234,124.964 46.583 C 124.043 47.317,123.129 48.029,122.932 48.167 C 122.403 48.536,119.667 51.314,119.667 51.482 C 119.667 51.561,119.543 51.729,119.391 51.855 C 118.970 52.204,116.705 55.088,116.337 55.744 C 116.158 56.063,115.838 56.607,115.626 56.954 C 115.104 57.806,114.750 58.441,114.297 59.333 C 114.088 59.746,113.860 60.108,113.792 60.139 C 113.723 60.169,113.667 60.291,113.667 60.409 C 113.667 60.608,113.432 61.204,112.679 62.917 C 112.518 63.283,112.291 63.958,112.175 64.417 C 112.059 64.875,111.868 65.475,111.752 65.750 C 111.635 66.025,111.410 67.112,111.252 68.167 C 111.093 69.221,110.895 70.217,110.811 70.380 C 110.726 70.543,110.610 71.875,110.553 73.339 C 110.495 74.802,110.385 76.000,110.307 76.000 C 110.230 76.000,110.167 83.237,110.167 92.083 L 110.167 108.167 122.083 108.167 L 134.000 108.167 134.000 81.583 C 134.000 57.823,133.973 55.000,133.745 55.000 C 133.604 55.000,133.446 54.887,133.394 54.750 C 133.341 54.612,133.218 54.500,133.121 54.500 C 133.023 54.500,132.430 54.125,131.802 53.667 C 131.174 53.208,130.586 52.833,130.496 52.833 C 130.407 52.833,130.333 52.756,130.333 52.661 C 130.333 52.567,130.202 52.441,130.042 52.381 C 129.881 52.322,129.188 51.854,128.500 51.341 C 127.813 50.828,126.912 50.210,126.500 49.967 C 124.971 49.066,124.975 49.199,126.442 47.950 C 127.161 47.338,127.836 46.836,127.941 46.835 C 128.045 46.834,128.174 46.721,128.227 46.583 C 128.280 46.446,128.406 46.333,128.508 46.333 C 128.610 46.333,129.081 46.077,129.555 45.763 C 130.029 45.450,131.204 44.783,132.167 44.281 L 133.917 43.369 133.967 42.434 C 134.012 41.587,133.985 41.500,133.675 41.500 C 133.487 41.500,133.333 41.567,133.333 41.649 M155.667 76.333 L 155.667 89.000 157.250 89.000 L 158.833 89.000 158.833 79.131 L 158.833 69.263 159.178 69.923 C 159.367 70.286,159.679 70.994,159.871 71.496 C 160.062 71.999,160.320 72.510,160.443 72.633 C 160.566 72.756,160.667 72.962,160.667 73.090 C 160.667 73.340,161.184 74.530,161.353 74.667 C 161.409 74.712,161.512 74.938,161.581 75.167 C 161.651 75.396,161.950 76.108,162.247 76.750 C 162.543 77.392,162.887 78.198,163.010 78.542 C 163.133 78.885,163.282 79.167,163.341 79.167 C 163.400 79.167,163.627 79.692,163.845 80.333 C 164.064 80.975,164.292 81.500,164.353 81.500 C 164.414 81.500,164.636 81.987,164.846 82.583 C 165.056 83.179,165.282 83.667,165.349 83.667 C 165.415 83.667,165.601 84.086,165.762 84.599 C 165.924 85.112,166.142 85.618,166.247 85.724 C 166.353 85.830,166.522 86.156,166.624 86.449 C 166.726 86.742,167.020 87.439,167.276 87.998 L 167.742 89.014 168.724 88.965 L 169.705 88.917 170.044 88.000 C 170.230 87.496,170.439 87.046,170.508 87.000 C 170.578 86.954,170.793 86.467,170.986 85.917 C 171.179 85.367,171.411 84.892,171.502 84.861 C 171.592 84.831,171.667 84.720,171.667 84.614 C 171.667 84.379,172.375 82.615,172.515 82.500 C 172.571 82.454,172.778 81.983,172.975 81.453 C 173.172 80.923,173.441 80.323,173.573 80.120 C 173.705 79.916,173.937 79.381,174.089 78.930 C 174.241 78.479,174.471 78.005,174.599 77.877 C 174.728 77.748,174.833 77.538,174.833 77.410 C 174.833 77.171,175.344 75.981,175.511 75.833 C 175.562 75.787,175.782 75.262,176.000 74.667 C 176.218 74.071,176.442 73.546,176.499 73.500 C 176.556 73.454,176.700 73.154,176.821 72.833 C 176.941 72.512,177.248 71.800,177.503 71.250 C 177.758 70.700,178.045 70.063,178.139 69.833 C 178.260 69.540,178.314 72.318,178.322 79.208 L 178.333 89.000 180.083 89.000 L 181.833 89.000 181.833 76.328 L 181.833 63.657 179.708 63.703 L 177.583 63.750 177.309 64.333 C 176.509 66.037,176.016 67.144,175.825 67.667 C 175.708 67.987,175.512 68.368,175.389 68.513 C 175.267 68.658,175.167 68.861,175.167 68.965 C 175.167 69.069,174.913 69.701,174.603 70.369 C 173.733 72.241,173.267 73.266,172.420 75.167 C 171.991 76.129,171.466 77.292,171.253 77.750 C 170.185 80.049,169.833 80.845,169.833 80.961 C 169.833 81.031,169.690 81.355,169.516 81.681 C 169.341 82.007,169.105 82.582,168.993 82.959 C 168.734 83.823,168.556 83.664,168.011 82.083 C 167.790 81.442,167.554 80.879,167.487 80.833 C 167.420 80.787,167.207 80.300,167.014 79.750 C 166.821 79.200,166.589 78.725,166.498 78.694 C 166.408 78.664,166.333 78.551,166.333 78.444 C 166.332 78.219,165.691 76.646,165.303 75.917 C 165.156 75.642,164.941 75.097,164.825 74.706 C 164.708 74.316,164.512 73.913,164.390 73.811 C 164.267 73.709,164.167 73.524,164.167 73.399 C 164.167 73.275,163.867 72.533,163.500 71.750 C 163.133 70.967,162.833 70.286,162.833 70.236 C 162.833 70.148,162.141 68.603,161.496 67.250 C 161.321 66.883,161.095 66.358,160.994 66.083 C 160.893 65.808,160.612 65.152,160.370 64.625 L 159.931 63.667 157.799 63.667 L 155.667 63.667 155.667 76.333 M188.000 76.333 L 188.000 89.000 189.667 89.000 L 191.333 89.000 191.333 76.333 L 191.333 63.667 189.667 63.667 L 188.000 63.667 188.000 76.333 M197.667 76.333 L 197.667 89.000 204.333 89.000 L 211.000 89.000 211.000 87.500 L 211.000 86.000 206.000 86.000 L 201.000 86.000 201.000 74.833 L 201.000 63.667 199.333 63.667 L 197.667 63.667 197.667 76.333 M214.667 76.333 L 214.667 89.000 221.333 89.000 L 228.000 89.000 228.000 87.500 L 228.000 86.000 223.000 86.000 L 218.000 86.000 218.000 74.833 L 218.000 63.667 216.333 63.667 L 214.667 63.667 214.667 76.333 M231.667 76.333 L 231.667 89.000 238.500 89.000 L 245.333 89.000 245.333 87.500 L 245.333 86.000 240.167 86.000 L 235.000 86.000 235.000 81.833 L 235.000 77.667 239.500 77.667 L 244.000 77.667 244.000 76.167 L 244.000 74.667 239.500 74.667 L 235.000 74.667 235.000 70.667 L 235.000 66.667 239.917 66.667 L 244.833 66.667 244.833 65.167 L 244.833 63.667 238.250 63.667 L 231.667 63.667 231.667 76.333 M249.833 76.333 L 249.833 89.000 251.499 89.000 L 253.164 89.000 253.207 78.824 L 253.250 68.648 253.878 69.616 C 254.756 70.968,254.745 70.952,255.566 72.250 C 255.972 72.892,256.405 73.534,256.527 73.678 C 256.650 73.821,256.936 74.290,257.163 74.719 C 257.390 75.149,257.626 75.500,257.686 75.500 C 257.746 75.500,257.912 75.744,258.055 76.042 C 258.197 76.340,258.431 76.733,258.574 76.917 C 258.717 77.100,259.165 77.775,259.570 78.417 C 259.974 79.058,260.405 79.701,260.527 79.844 C 260.650 79.988,260.896 80.387,261.075 80.731 C 261.253 81.076,261.572 81.559,261.783 81.804 C 261.994 82.049,262.166 82.330,262.166 82.427 C 262.167 82.524,262.310 82.757,262.485 82.945 C 262.660 83.133,262.954 83.583,263.139 83.946 C 263.324 84.309,263.594 84.704,263.738 84.823 C 263.882 84.943,264.000 85.133,264.000 85.246 C 264.000 85.359,264.169 85.636,264.375 85.862 C 264.581 86.087,264.932 86.605,265.154 87.011 C 265.377 87.417,265.610 87.787,265.673 87.833 C 265.735 87.879,265.912 88.160,266.064 88.458 L 266.342 89.000 268.421 89.000 L 270.500 89.000 270.500 76.333 L 270.500 63.667 268.833 63.667 L 267.167 63.667 267.167 73.865 C 267.167 84.914,267.203 84.490,266.375 83.033 C 266.260 82.832,266.073 82.502,265.958 82.300 C 265.844 82.099,265.619 81.784,265.458 81.602 C 265.298 81.420,265.167 81.186,265.167 81.083 C 265.167 80.980,265.024 80.743,264.849 80.555 C 264.674 80.367,264.379 79.917,264.194 79.554 C 264.009 79.191,263.740 78.796,263.596 78.677 C 263.451 78.557,263.333 78.393,263.333 78.311 C 263.333 78.230,263.033 77.723,262.667 77.186 C 262.300 76.649,262.000 76.129,262.000 76.030 C 262.000 75.931,261.897 75.790,261.772 75.717 C 261.646 75.643,261.377 75.254,261.173 74.852 C 260.969 74.449,260.660 73.966,260.485 73.778 C 260.310 73.591,260.167 73.353,260.167 73.250 C 260.167 73.147,260.032 72.917,259.867 72.740 C 259.702 72.562,259.383 72.079,259.158 71.667 C 258.934 71.254,258.669 70.864,258.571 70.800 C 258.472 70.735,258.254 70.379,258.087 70.008 C 257.920 69.637,257.732 69.333,257.671 69.333 C 257.609 69.333,257.391 68.996,257.185 68.583 C 256.979 68.171,256.752 67.833,256.680 67.833 C 256.609 67.833,256.414 67.530,256.246 67.159 C 256.079 66.788,255.860 66.432,255.759 66.367 C 255.658 66.303,255.389 65.894,255.163 65.458 C 254.936 65.023,254.703 64.667,254.646 64.667 C 254.588 64.667,254.447 64.442,254.333 64.167 L 254.126 63.667 251.980 63.667 L 249.833 63.667 249.833 76.333 M276.833 76.333 L 276.833 89.000 278.499 89.000 L 280.164 89.000 280.207 78.824 L 280.250 68.648 280.878 69.616 C 281.756 70.968,281.745 70.952,282.566 72.250 C 282.972 72.892,283.405 73.534,283.527 73.678 C 283.650 73.821,283.936 74.290,284.163 74.719 C 284.390 75.149,284.626 75.500,284.686 75.500 C 284.746 75.500,284.912 75.744,285.055 76.042 C 285.197 76.340,285.431 76.733,285.574 76.917 C 285.717 77.100,286.165 77.775,286.570 78.417 C 286.974 79.058,287.405 79.701,287.527 79.844 C 287.650 79.988,287.936 80.457,288.163 80.886 C 288.390 81.315,288.625 81.667,288.685 81.667 C 288.744 81.667,288.883 81.884,288.993 82.149 C 289.103 82.415,289.330 82.779,289.498 82.959 C 289.665 83.139,289.969 83.616,290.173 84.018 C 290.377 84.421,290.646 84.810,290.772 84.883 C 290.897 84.957,291.000 85.114,291.000 85.234 C 291.000 85.354,291.169 85.636,291.375 85.862 C 291.581 86.087,291.932 86.605,292.154 87.011 C 292.377 87.417,292.610 87.787,292.673 87.833 C 292.735 87.879,292.912 88.160,293.064 88.458 L 293.342 89.000 295.421 89.000 L 297.500 89.000 297.500 76.333 L 297.500 63.667 295.833 63.667 L 294.167 63.667 294.167 73.865 L 294.167 84.063 293.833 83.705 C 293.650 83.508,293.500 83.303,293.500 83.248 C 293.500 83.193,293.219 82.719,292.875 82.195 C 292.531 81.671,292.155 81.094,292.039 80.913 C 291.923 80.732,291.698 80.382,291.539 80.135 C 291.380 79.889,291.100 79.442,290.917 79.143 C 290.414 78.323,290.302 78.149,289.625 77.132 C 289.281 76.616,289.000 76.116,289.000 76.022 C 289.000 75.927,288.898 75.790,288.773 75.717 C 288.647 75.643,288.413 75.321,288.252 75.000 C 288.092 74.679,287.864 74.304,287.747 74.167 C 287.630 74.029,287.375 73.631,287.181 73.282 C 286.987 72.932,286.754 72.557,286.663 72.448 C 286.573 72.339,286.212 71.800,285.862 71.250 C 285.511 70.700,284.949 69.825,284.612 69.305 C 284.276 68.785,284.000 68.283,284.000 68.188 C 284.000 68.094,283.897 67.957,283.772 67.883 C 283.646 67.810,283.382 67.431,283.185 67.042 C 282.988 66.652,282.772 66.332,282.705 66.331 C 282.638 66.329,282.400 65.954,282.176 65.497 C 281.951 65.041,281.717 64.667,281.654 64.667 C 281.592 64.667,281.447 64.442,281.333 64.167 L 281.126 63.667 278.980 63.667 L 276.833 63.667 276.833 76.333 M303.778 63.778 C 303.717 63.839,303.667 69.539,303.667 76.444 L 303.667 89.000 305.417 89.000 L 307.167 89.000 307.167 76.333 L 307.167 63.667 305.528 63.667 C 304.626 63.667,303.839 63.717,303.778 63.778 M313.049 72.708 C 313.141 82.750,313.173 83.093,314.222 85.188 C 315.367 87.475,317.654 89.167,319.602 89.167 C 319.821 89.167,320.000 89.242,320.000 89.333 C 320.000 89.546,324.558 89.559,324.961 89.348 C 325.120 89.264,325.697 89.099,326.244 88.980 C 326.798 88.859,327.598 88.520,328.052 88.215 C 328.500 87.913,328.904 87.667,328.950 87.667 C 329.455 87.667,331.251 84.747,331.513 83.500 C 331.619 82.996,331.791 82.478,331.894 82.350 C 332.029 82.183,332.098 79.445,332.134 72.885 L 332.185 63.655 330.467 63.702 L 328.750 63.750 328.659 72.917 C 328.551 83.758,328.645 83.139,326.818 85.003 C 326.397 85.433,325.835 85.839,325.569 85.905 C 325.304 85.972,325.032 86.114,324.966 86.222 C 324.811 86.473,320.542 86.495,320.369 86.245 C 320.304 86.151,319.921 85.929,319.518 85.751 C 318.616 85.353,317.774 84.490,317.320 83.500 C 317.131 83.087,316.904 82.616,316.816 82.452 C 316.452 81.774,316.343 79.336,316.338 71.708 L 316.333 63.667 314.650 63.667 L 312.967 63.667 313.049 72.708 M338.167 76.333 L 338.167 89.000 339.750 89.000 L 341.333 89.000 341.348 79.042 C 341.356 73.340,341.422 69.284,341.503 69.552 C 341.580 69.810,341.718 70.111,341.809 70.221 C 341.900 70.331,342.142 70.868,342.347 71.415 C 342.552 71.962,342.820 72.510,342.943 72.633 C 343.066 72.756,343.167 72.962,343.167 73.090 C 343.167 73.340,343.684 74.530,343.853 74.667 C 343.909 74.712,344.012 74.938,344.081 75.167 C 344.151 75.396,344.448 76.108,344.741 76.750 C 345.034 77.392,345.377 78.179,345.503 78.500 C 345.628 78.821,345.780 79.121,345.841 79.167 C 345.901 79.212,346.111 79.684,346.308 80.214 C 346.505 80.744,346.774 81.344,346.906 81.547 C 347.038 81.750,347.272 82.292,347.426 82.750 C 347.580 83.208,347.765 83.621,347.837 83.667 C 347.909 83.712,348.124 84.195,348.315 84.739 C 348.507 85.283,348.727 85.771,348.804 85.822 C 348.882 85.874,349.027 86.156,349.128 86.449 C 349.228 86.742,349.518 87.436,349.773 87.991 L 350.236 89.000 351.205 89.000 C 352.108 89.000,352.186 88.969,352.351 88.542 C 352.448 88.290,352.670 87.808,352.845 87.471 C 353.019 87.134,353.283 86.503,353.430 86.068 C 353.578 85.633,353.804 85.172,353.933 85.043 C 354.061 84.915,354.167 84.707,354.167 84.581 C 354.167 84.456,354.458 83.730,354.813 82.968 C 355.169 82.207,355.517 81.396,355.586 81.167 C 355.655 80.938,355.760 80.712,355.819 80.667 C 355.878 80.621,356.062 80.246,356.229 79.833 C 356.559 79.020,357.003 78.033,357.814 76.316 C 358.100 75.711,358.333 75.169,358.333 75.112 C 358.333 75.054,358.596 74.447,358.917 73.761 C 359.238 73.076,359.500 72.463,359.500 72.400 C 359.500 72.336,359.718 71.826,359.985 71.267 C 360.251 70.708,360.570 70.025,360.693 69.750 C 360.884 69.324,360.923 70.704,360.960 79.125 L 361.003 89.000 362.668 89.000 L 364.333 89.000 364.333 76.333 L 364.333 63.667 362.245 63.667 C 360.409 63.667,360.143 63.702,360.046 63.958 C 359.985 64.119,359.837 64.349,359.718 64.470 C 359.598 64.591,359.500 64.795,359.500 64.923 C 359.500 65.173,358.983 66.363,358.814 66.500 C 358.758 66.546,358.655 66.771,358.585 67.000 C 358.465 67.397,358.166 68.070,356.897 70.795 C 356.587 71.462,356.333 72.042,356.333 72.084 C 356.333 72.126,356.033 72.792,355.667 73.563 C 355.300 74.335,355.000 75.087,355.000 75.233 C 355.000 75.380,354.932 75.500,354.848 75.500 C 354.765 75.500,354.522 75.987,354.308 76.583 C 354.094 77.179,353.872 77.667,353.813 77.667 C 353.755 77.667,353.534 78.135,353.323 78.708 C 353.111 79.281,352.888 79.787,352.827 79.833 C 352.766 79.879,352.549 80.366,352.346 80.915 C 352.142 81.464,351.913 81.989,351.838 82.081 C 351.763 82.174,351.606 82.571,351.489 82.964 L 351.277 83.678 350.916 82.964 C 350.717 82.571,350.423 81.856,350.264 81.375 C 350.104 80.894,349.904 80.500,349.820 80.500 C 349.736 80.500,349.667 80.385,349.667 80.244 C 349.667 80.015,348.850 78.097,347.752 75.750 C 347.538 75.292,347.275 74.635,347.168 74.292 C 347.062 73.948,346.905 73.667,346.820 73.667 C 346.736 73.667,346.667 73.556,346.667 73.420 C 346.667 73.284,346.377 72.553,346.023 71.795 C 345.669 71.037,345.323 70.229,345.255 70.000 C 345.188 69.771,345.027 69.417,344.899 69.214 C 344.771 69.010,344.505 68.410,344.308 67.880 C 344.111 67.350,343.901 66.879,343.840 66.833 C 343.779 66.787,343.551 66.262,343.333 65.667 C 343.116 65.071,342.887 64.546,342.825 64.500 C 342.762 64.454,342.659 64.248,342.595 64.042 C 342.481 63.678,342.412 63.667,340.322 63.667 L 338.167 63.667 338.167 76.333 M221.500 92.108 C 219.295 92.832,218.333 94.011,218.333 95.991 C 218.333 96.622,218.390 97.164,218.458 97.194 C 218.527 97.225,218.737 97.537,218.925 97.889 C 219.125 98.262,219.539 98.677,219.925 98.889 C 220.287 99.087,220.627 99.310,220.681 99.383 C 220.735 99.456,221.502 99.880,222.385 100.326 C 224.358 101.321,225.000 101.962,225.000 102.934 C 225.000 104.807,222.148 105.471,219.662 104.178 C 218.234 103.435,218.167 103.461,218.167 104.754 C 218.167 105.789,218.189 105.850,218.625 106.008 C 218.877 106.099,219.264 106.266,219.484 106.378 C 221.136 107.223,225.037 106.525,226.362 105.149 C 227.740 103.718,227.073 100.136,225.326 99.581 C 225.147 99.524,225.000 99.420,225.000 99.351 C 225.000 99.281,224.606 99.043,224.125 98.822 C 223.644 98.601,223.213 98.374,223.167 98.318 C 223.121 98.262,222.707 98.044,222.247 97.835 C 221.053 97.291,219.631 95.169,220.458 95.166 C 220.527 95.166,220.729 94.949,220.907 94.683 C 221.578 93.682,224.883 93.528,225.812 94.455 C 226.304 94.947,226.583 94.638,226.583 93.601 C 226.583 92.655,226.564 92.613,226.003 92.311 C 225.439 92.009,222.241 91.865,221.500 92.108 M236.500 92.216 C 236.271 92.333,235.744 92.558,235.329 92.714 C 233.687 93.334,231.939 95.638,231.723 97.468 C 231.666 97.944,231.556 98.333,231.477 98.333 C 231.275 98.333,231.297 100.791,231.500 100.917 C 231.592 100.973,231.667 101.205,231.667 101.431 C 231.667 101.939,232.221 103.548,232.525 103.922 C 233.609 105.257,234.773 106.167,235.395 106.167 C 235.529 106.167,235.670 106.260,235.708 106.375 C 235.801 106.651,240.952 106.675,241.131 106.401 C 241.197 106.300,241.456 106.168,241.708 106.106 C 242.146 105.999,242.167 105.948,242.167 104.979 L 242.167 103.964 241.710 104.078 C 241.459 104.142,241.213 104.258,241.164 104.337 C 240.766 104.982,236.896 104.963,236.075 104.313 C 234.882 103.369,234.168 102.508,233.973 101.782 C 233.858 101.352,233.705 101.000,233.632 101.000 C 233.559 101.000,233.500 100.325,233.500 99.500 C 233.500 98.611,233.568 98.000,233.667 98.000 C 233.758 98.000,233.833 97.860,233.833 97.688 C 233.833 97.209,234.469 95.881,234.750 95.773 C 234.887 95.720,235.000 95.578,235.000 95.458 C 235.000 95.337,235.222 95.107,235.494 94.947 C 235.766 94.786,236.084 94.561,236.202 94.446 C 236.930 93.738,240.743 93.648,241.164 94.329 C 241.213 94.409,241.459 94.525,241.710 94.588 L 242.167 94.703 242.167 93.689 L 242.167 92.675 241.426 92.337 C 240.530 91.930,237.217 91.848,236.500 92.216 M307.833 92.109 C 306.462 92.560,305.527 93.064,304.830 93.724 C 300.864 97.484,301.728 104.279,306.420 106.227 C 307.614 106.722,311.815 106.858,312.134 106.411 C 312.198 106.322,312.681 106.105,313.208 105.931 L 314.167 105.613 314.167 102.223 L 314.167 98.833 311.575 98.833 L 308.983 98.833 309.033 99.708 L 309.083 100.583 310.625 100.631 L 312.167 100.679 312.164 102.381 C 312.163 103.317,312.106 104.165,312.039 104.265 C 311.588 104.933,307.167 104.977,307.167 104.314 C 307.167 104.233,307.087 104.167,306.989 104.167 C 306.598 104.167,305.687 103.282,305.313 102.538 C 305.095 102.105,304.842 101.696,304.750 101.631 C 304.499 101.452,304.532 97.353,304.785 97.196 C 304.896 97.128,305.098 96.807,305.233 96.484 C 305.434 96.003,306.445 94.938,307.250 94.359 C 308.113 93.739,312.333 93.701,312.333 94.314 C 312.333 94.461,313.334 94.833,313.728 94.833 C 313.975 94.833,314.009 94.688,313.966 93.818 L 313.917 92.803 313.000 92.408 C 312.113 92.026,308.686 91.828,307.833 92.109 M358.292 92.107 C 358.131 92.153,358.000 92.244,358.000 92.309 C 358.000 92.374,357.664 92.526,357.253 92.648 C 356.375 92.907,354.518 94.603,354.176 95.458 C 354.057 95.756,353.903 96.000,353.833 96.000 C 353.386 96.000,353.030 99.744,353.318 101.402 C 353.703 103.609,355.752 106.167,357.136 106.167 C 357.229 106.167,357.337 106.260,357.375 106.375 C 357.463 106.639,362.613 106.676,362.798 106.415 C 362.863 106.322,363.142 106.170,363.417 106.078 C 363.877 105.924,363.921 105.841,363.967 105.037 C 364.029 103.957,363.822 103.836,362.814 104.366 C 360.753 105.449,357.619 104.717,356.268 102.837 C 354.564 100.465,355.205 96.183,357.471 94.807 C 357.808 94.602,358.121 94.382,358.167 94.319 C 358.644 93.659,362.446 93.756,363.136 94.446 C 363.619 94.928,363.913 94.642,363.966 93.639 C 364.014 92.727,363.999 92.690,363.466 92.403 C 362.922 92.111,359.048 91.889,358.292 92.107 M155.833 99.336 L 155.833 106.506 159.625 106.461 L 163.417 106.417 163.417 105.583 L 163.417 104.750 160.625 104.704 L 157.833 104.659 157.833 98.413 L 157.833 92.167 156.833 92.167 L 155.833 92.167 155.833 99.336 M172.276 92.292 C 172.233 92.360,172.047 92.829,171.861 93.333 C 171.675 93.837,171.248 94.962,170.912 95.833 C 170.576 96.704,170.137 97.867,169.937 98.417 C 169.736 98.967,169.491 99.567,169.392 99.750 C 169.293 99.933,169.041 100.608,168.833 101.250 C 168.626 101.892,168.392 102.497,168.315 102.596 C 168.237 102.695,168.013 103.295,167.817 103.929 C 167.621 104.563,167.357 105.231,167.231 105.412 C 166.676 106.204,166.904 106.500,168.070 106.500 C 169.124 106.500,169.142 106.492,169.250 106.000 C 169.310 105.725,169.412 105.500,169.476 105.500 C 169.540 105.500,169.772 104.862,169.990 104.083 L 170.388 102.667 173.235 102.671 L 176.083 102.675 176.369 103.296 C 176.526 103.637,176.808 104.397,176.995 104.985 C 177.463 106.449,177.523 106.500,178.788 106.500 L 179.869 106.500 179.755 106.043 C 179.692 105.792,179.581 105.548,179.510 105.502 C 179.438 105.455,179.204 104.854,178.991 104.167 C 178.778 103.479,178.554 102.879,178.493 102.833 C 178.432 102.787,178.212 102.225,178.003 101.583 C 177.793 100.942,177.562 100.340,177.489 100.247 C 177.416 100.153,177.187 99.553,176.979 98.913 C 176.772 98.274,176.553 97.712,176.493 97.667 C 176.432 97.621,176.212 97.058,176.003 96.417 C 175.793 95.775,175.559 95.169,175.481 95.070 C 175.404 94.972,175.182 94.378,174.988 93.752 C 174.795 93.125,174.536 92.512,174.414 92.390 C 174.177 92.153,172.412 92.072,172.276 92.292 M184.444 92.278 C 184.383 92.339,184.333 95.564,184.333 99.444 L 184.333 106.500 185.333 106.500 L 186.333 106.500 186.333 101.000 C 186.333 95.511,186.390 95.002,186.888 96.042 C 187.031 96.340,187.265 96.733,187.408 96.917 C 187.693 97.282,188.755 98.921,189.667 100.404 C 189.987 100.926,190.419 101.555,190.625 101.801 C 190.831 102.048,191.000 102.330,191.000 102.427 C 191.000 102.524,191.131 102.749,191.292 102.927 C 191.452 103.105,191.733 103.536,191.917 103.885 C 192.100 104.235,192.381 104.640,192.542 104.786 C 192.702 104.932,192.833 105.127,192.833 105.218 C 192.833 105.953,193.690 106.500,194.842 106.500 L 196.000 106.500 196.000 99.333 L 196.000 92.167 195.000 92.167 L 194.000 92.167 194.000 97.667 C 194.000 103.755,194.021 103.668,193.008 101.826 C 192.784 101.418,192.465 100.938,192.300 100.760 C 192.135 100.583,192.000 100.353,192.000 100.250 C 192.000 100.147,191.868 99.917,191.707 99.740 C 191.545 99.562,191.227 99.060,190.999 98.625 C 190.771 98.190,190.533 97.833,190.470 97.833 C 190.408 97.833,190.188 97.496,189.982 97.083 C 189.776 96.671,189.559 96.333,189.500 96.333 C 189.441 96.333,189.228 96.004,189.027 95.602 C 188.826 95.199,188.550 94.777,188.414 94.665 C 188.278 94.552,188.167 94.393,188.167 94.311 C 188.167 94.230,187.860 93.714,187.485 93.165 L 186.804 92.167 185.680 92.167 C 185.061 92.167,184.506 92.217,184.444 92.278 M202.167 99.333 L 202.167 106.500 205.167 106.500 C 206.817 106.500,208.167 106.434,208.167 106.352 C 208.167 106.271,208.485 106.156,208.875 106.097 C 209.265 106.038,209.853 105.823,210.182 105.620 C 211.534 104.785,212.000 104.462,212.000 104.359 C 212.000 104.299,212.185 104.036,212.410 103.774 C 212.635 103.512,212.948 102.950,213.105 102.524 C 213.262 102.098,213.472 101.645,213.570 101.516 C 213.809 101.204,213.810 96.964,213.572 96.651 C 213.474 96.522,213.295 96.104,213.174 95.721 C 212.940 94.977,211.770 93.500,211.416 93.500 C 211.298 93.500,211.165 93.402,211.119 93.282 C 211.072 93.162,210.558 92.929,209.976 92.765 C 209.393 92.601,208.744 92.399,208.534 92.317 C 208.323 92.234,206.805 92.167,205.159 92.167 L 202.167 92.167 202.167 99.333 M251.064 92.792 C 250.926 93.135,250.714 93.642,250.593 93.917 C 250.472 94.192,250.242 94.829,250.081 95.333 C 249.921 95.837,249.725 96.332,249.646 96.432 C 249.567 96.532,249.352 97.088,249.167 97.667 C 248.982 98.246,248.766 98.801,248.687 98.901 C 248.609 99.001,248.374 99.608,248.167 100.250 C 247.959 100.892,247.725 101.499,247.646 101.599 C 247.567 101.699,247.350 102.261,247.162 102.849 C 246.975 103.436,246.671 104.229,246.486 104.611 C 246.301 104.993,246.107 105.575,246.053 105.903 L 245.956 106.500 247.046 106.500 L 248.136 106.500 248.349 105.667 C 248.467 105.208,248.616 104.833,248.680 104.833 C 248.744 104.833,248.928 104.346,249.090 103.750 L 249.383 102.667 252.253 102.667 L 255.123 102.667 255.333 103.417 C 255.449 103.829,255.592 104.167,255.652 104.167 C 255.712 104.167,255.864 104.523,255.990 104.958 C 256.445 106.522,256.420 106.500,257.693 106.500 C 258.596 106.500,258.833 106.448,258.833 106.250 C 258.833 106.112,258.769 106.000,258.691 106.000 C 258.613 106.000,258.383 105.442,258.181 104.760 C 257.978 104.079,257.759 103.497,257.695 103.469 C 257.630 103.440,257.396 102.835,257.176 102.125 C 256.955 101.415,256.725 100.833,256.664 100.833 C 256.603 100.833,256.417 100.365,256.251 99.792 C 256.085 99.219,255.859 98.600,255.750 98.417 C 255.641 98.233,255.379 97.558,255.168 96.917 C 254.957 96.275,254.733 95.712,254.671 95.667 C 254.608 95.621,254.381 95.002,254.165 94.292 C 253.949 93.581,253.719 93.000,253.654 93.000 C 253.589 93.000,253.489 92.813,253.432 92.583 C 253.334 92.196,253.255 92.167,252.322 92.167 L 251.316 92.167 251.064 92.792 M263.333 99.333 L 263.333 106.500 264.333 106.500 L 265.333 106.500 265.333 103.857 L 265.333 101.214 267.125 101.123 C 268.930 101.031,270.109 100.709,270.383 100.232 C 270.457 100.104,270.623 100.000,270.752 100.000 C 270.882 100.000,271.075 99.831,271.182 99.625 C 271.288 99.419,271.532 99.078,271.724 98.868 C 272.163 98.385,272.345 95.515,271.992 94.623 C 271.680 93.832,270.444 92.702,269.748 92.572 C 269.426 92.512,269.122 92.396,269.072 92.314 C 269.021 92.233,267.710 92.167,266.157 92.167 L 263.333 92.167 263.333 99.333 M277.333 99.333 L 277.333 106.500 278.333 106.500 L 279.333 106.500 279.333 99.333 L 279.333 92.167 278.333 92.167 L 277.333 92.167 277.333 99.333 M285.611 92.278 C 285.550 92.339,285.500 95.564,285.500 99.444 L 285.500 106.500 286.500 106.500 L 287.500 106.500 287.500 101.000 C 287.500 95.267,287.535 95.021,288.167 96.250 C 288.379 96.662,288.597 97.000,288.651 97.000 C 288.706 97.000,288.938 97.355,289.167 97.790 C 289.396 98.224,289.696 98.702,289.833 98.852 C 289.971 99.002,290.383 99.627,290.750 100.240 C 291.117 100.854,291.585 101.557,291.791 101.803 C 291.998 102.049,292.166 102.330,292.166 102.427 C 292.167 102.524,292.298 102.750,292.458 102.928 C 292.619 103.106,292.932 103.589,293.154 104.001 C 293.376 104.413,293.657 104.810,293.779 104.883 C 293.900 104.957,294.000 105.100,294.000 105.201 C 294.000 105.952,294.847 106.500,296.008 106.500 L 297.167 106.500 297.167 99.333 L 297.167 92.167 296.167 92.167 L 295.167 92.167 295.167 97.667 L 295.167 103.167 294.833 102.833 C 294.650 102.650,294.500 102.453,294.500 102.395 C 294.500 102.338,294.218 101.869,293.873 101.354 C 293.528 100.838,293.140 100.210,293.011 99.958 C 292.882 99.706,292.715 99.500,292.639 99.500 C 292.562 99.500,292.500 99.415,292.500 99.312 C 292.500 99.208,292.237 98.758,291.917 98.311 C 291.596 97.865,291.333 97.461,291.333 97.414 C 291.333 97.368,291.033 96.890,290.667 96.353 C 290.300 95.816,290.000 95.303,290.000 95.214 C 290.000 95.125,289.850 94.916,289.667 94.750 C 289.483 94.584,289.333 94.384,289.333 94.306 C 289.333 94.227,289.027 93.714,288.652 93.165 L 287.971 92.167 286.846 92.167 C 286.228 92.167,285.672 92.217,285.611 92.278 M328.167 99.325 L 328.167 106.500 329.168 106.500 L 330.170 106.500 330.127 99.375 L 330.083 92.250 329.125 92.200 L 328.167 92.150 328.167 99.325 M336.333 99.333 L 336.333 106.500 337.333 106.500 L 338.333 106.500 338.333 101.000 C 338.333 94.912,338.313 94.999,339.325 96.841 C 339.550 97.249,339.868 97.729,340.033 97.906 C 340.198 98.084,340.333 98.314,340.333 98.417 C 340.333 98.520,340.476 98.757,340.651 98.945 C 340.826 99.133,341.121 99.583,341.306 99.946 C 341.491 100.309,341.760 100.704,341.904 100.823 C 342.049 100.943,342.167 101.133,342.167 101.246 C 342.167 101.359,342.335 101.636,342.542 101.862 C 342.748 102.087,343.100 102.605,343.325 103.011 C 343.550 103.417,343.793 103.825,343.867 103.917 C 343.940 104.008,344.356 104.626,344.792 105.290 L 345.583 106.496 346.793 106.498 L 348.004 106.500 347.960 99.375 L 347.917 92.250 346.961 92.200 L 346.004 92.150 345.961 97.783 L 345.917 103.417 345.421 102.583 C 345.149 102.125,344.867 101.675,344.796 101.583 C 344.635 101.379,342.861 98.599,341.710 96.750 C 341.425 96.292,341.092 95.799,340.971 95.656 C 340.849 95.512,340.600 95.106,340.417 94.751 C 340.233 94.397,340.006 94.027,339.911 93.929 C 339.816 93.831,339.532 93.394,339.279 92.958 L 338.819 92.167 337.576 92.167 L 336.333 92.167 336.333 99.333 M208.349 94.264 C 208.478 94.363,208.846 94.546,209.167 94.671 C 209.971 94.983,210.906 95.951,211.176 96.750 C 211.300 97.117,211.461 97.488,211.534 97.575 C 211.731 97.810,211.699 100.833,211.500 100.833 C 211.408 100.833,211.333 100.938,211.333 101.065 C 211.333 102.918,208.993 104.492,206.042 104.625 L 204.167 104.709 204.167 99.337 L 204.167 93.965 206.141 94.024 C 207.227 94.057,208.221 94.165,208.349 94.264 M268.900 94.376 C 269.056 94.532,269.326 94.759,269.500 94.882 C 270.958 95.902,269.935 98.838,268.037 99.082 C 267.604 99.138,267.120 99.255,266.961 99.342 C 266.801 99.429,266.370 99.500,266.002 99.500 L 265.333 99.500 265.333 96.731 L 265.333 93.961 266.975 94.027 C 268.234 94.078,268.683 94.159,268.900 94.376 M174.019 97.024 C 174.210 97.652,174.433 98.167,174.516 98.167 C 174.599 98.167,174.667 98.269,174.667 98.395 C 174.667 98.521,174.817 99.093,175.000 99.667 C 175.183 100.241,175.333 100.738,175.333 100.772 C 175.333 100.806,174.391 100.833,173.239 100.833 L 171.144 100.833 171.261 100.458 C 171.326 100.252,171.433 100.046,171.499 100.000 C 171.565 99.954,171.795 99.317,172.010 98.583 C 172.224 97.850,172.451 97.228,172.515 97.201 C 172.578 97.173,172.766 96.676,172.932 96.095 C 173.286 94.861,173.388 94.949,174.019 97.024 M252.634 96.052 C 252.721 96.161,252.966 96.813,253.178 97.500 C 253.390 98.188,253.606 98.787,253.657 98.833 C 253.746 98.912,254.002 99.617,254.247 100.458 C 254.356 100.833,254.355 100.833,252.250 100.833 L 250.144 100.833 250.259 100.458 C 250.322 100.252,250.506 99.783,250.670 99.417 C 250.833 99.050,251.079 98.375,251.216 97.917 C 251.354 97.458,251.586 96.858,251.732 96.583 C 251.878 96.308,252.049 95.821,252.110 95.500 L 252.223 94.917 252.350 95.386 C 252.420 95.644,252.548 95.944,252.634 96.052 " stroke="none" fill="#040404" fill-rule="evenodd"></path></g></svg>